<?xml version="1.0" encoding="UTF-8"?>
<svg xmlns="http://www.w3.org/2000/svg" viewBox="0 0 24 24">
  <path fill="#c62828" d="M6.6 10.8C8 13 10 15 12.2 16.4L14 14.6C14.2 14.4 14.5 14.3 14.8 14.3C15 14.3 15.3 14.4 15.5 14.6L17.9 17C18.2 17.3 18.2 17.8 17.9 18.1L15.6 20.4C15.3 20.7 14.9 20.7 14.6 20.4C12.8 18.8 9.7 15.7 8.1 14C7.8 13.7 7.8 13.3 8.1 13L10.4 10.7C10.7 10.4 11.2 10.4 11.5 10.7L13.8 13C13.9 13.1 14 13.1 14.1 13C14.5 12.6 15 12.3 15.5 12C15.9 11.8 16.5 11.9 16.9 12.3L18.3 13.7C18.6 14 18.6 14.4 18.3 14.8C16.6 17.4 13.1 21 10.5 22.7C6.6 25.4 3 22.8 1.3 20.1C-0.4 17.4 3 13.9 5.6 12.1C6 11.8 6.4 11.7 6.8 11.8C7.2 11.9 7.6 12.1 7.9 12.4L6.6 10.8Z"/>
</svg>
